<svg xmlns="http://www.w3.org/2000/svg" width="26.618" height="39.689" viewBox="0 0 26.618 39.689">
  <g id="bulb-outline" transform="translate(-84.313)">
    <g id="Group_117" data-name="Group 117" transform="translate(93.015 37.543)">
      <g id="Group_116" data-name="Group 116">
        <path id="Path_115" data-name="Path 115" d="M196.573,484.319a6.018,6.018,0,0,0,9.213,0Z" transform="translate(-196.573 -484.319)" fill="#f1be1a"/>
      </g>
    </g>
    <g id="Group_119" data-name="Group 119" transform="translate(89.652 29.34)">
      <g id="Group_118" data-name="Group 118" transform="translate(0)">
        <path id="Path_116" data-name="Path 116" d="M153.188,378.5v4.32a1.294,1.294,0,0,0,1.294,1.294h13.351a1.294,1.294,0,0,0,1.294-1.294V378.5Z" transform="translate(-153.188 -378.496)" fill="#f1be1a"/>
      </g>
    </g>
    <g id="Group_121" data-name="Group 121" transform="translate(96.73 21.355)">
      <g id="Group_120" data-name="Group 120" transform="translate(0)">
        <rect id="Rectangle_42" data-name="Rectangle 42" width="1.784" height="5.397" fill="#f1be1a"/>
      </g>
    </g>
    <g id="Group_123" data-name="Group 123" transform="translate(92.892 17.517)">
      <g id="Group_122" data-name="Group 122">
        <path id="Path_117" data-name="Path 117" d="M195.606,225.978a.625.625,0,1,0,0,1.249h.625V226.6A.625.625,0,0,0,195.606,225.978Z" transform="translate(-194.981 -225.978)" fill="#f1be1a"/>
      </g>
    </g>
    <g id="Group_125" data-name="Group 125" transform="translate(101.102 17.517)">
      <g id="Group_124" data-name="Group 124" transform="translate(0)">
        <path id="Path_118" data-name="Path 118" d="M301.521,225.979a.625.625,0,0,0-.625.625v.625h.625a.625.625,0,0,0,0-1.249Z" transform="translate(-300.896 -225.979)" fill="#f1be1a"/>
      </g>
    </g>
    <g id="Group_127" data-name="Group 127" transform="translate(84.313)">
      <g id="Group_126" data-name="Group 126" transform="translate(0)">
        <path id="Path_119" data-name="Path 119" d="M97.622,0a13.309,13.309,0,0,0-7.97,23.967v2.784h4.489v-5.4h-.625a3.213,3.213,0,1,1,3.213-3.213v.625h1.784v-.625a3.213,3.213,0,1,1,3.213,3.213H101.1v5.4h4.49V23.967A13.309,13.309,0,0,0,97.622,0Z" transform="translate(-84.313)" fill="#f1be1a"/>
      </g>
    </g>
  </g>
</svg>
