<svg xmlns="http://www.w3.org/2000/svg" width="32.682" height="32.686" viewBox="0 0 32.682 32.686">
  <g id="surface1" transform="translate(-0.082)">
    <path id="Path_127" data-name="Path 127" d="M105.711.223A.76.76,0,1,0,104.636,1.3l1.594,1.594-1.4,1.349L107.387,6.8l1.4-1.348-1.277-1.278,2.871,2.871a.76.76,0,1,0,1.075-1.074Zm0,0" transform="translate(-78.913 0)" fill="#0698af"/>
    <path id="Path_128" data-name="Path 128" d="M30.7,15.757,22.73,7.787a.76.76,0,0,0-1.074,1.075l1.15,1.15-2.2,2.2,1.822,1.822a.461.461,0,1,1-.652.652l-1.822-1.822-1.682,1.683,1.822,1.822a.455.455,0,0,1-.621.666l-.023-.023L17.63,15.189l-1.683,1.679,1.822,1.822a.456.456,0,0,1-.621.666.248.248,0,0,1-.022-.023L15.3,17.512l-1.683,1.681,1.822,1.822a.46.46,0,0,1-.649.653l-1.822-1.822-1.684,1.685,1.821,1.821a.456.456,0,1,1-.621.667L12.466,24l-1.822-1.822L8.966,23.849l1.822,1.822a.456.456,0,0,1-.62.667.182.182,0,0,1-.023-.024L8.322,24.493l-2.2,2.2,1.557,1.557L5.8,30.127l.955.95L.227,37.619a.456.456,0,1,0,.62.667c.007-.009.015-.015.022-.024L7.4,31.73l.956.956L10.241,30.8,11.8,32.362,28.476,15.684l1.131,1.148a.76.76,0,1,0,1.075-1.074Zm0,0" transform="translate(0 -5.722)" fill="#0698af"/>
  </g>
</svg>
