<svg id="files-and-folders" xmlns="http://www.w3.org/2000/svg" width="33.397" height="33.397" viewBox="0 0 33.397 33.397">
  <path id="Path_121" data-name="Path 121" d="M419.914,106.978a.978.978,0,0,0-.978-.978H416v4.827h3.914Zm0,0" transform="translate(-388.865 -99.086)" fill="#610000"/>
  <path id="Path_122" data-name="Path 122" d="M39.914,106H36.978a.978.978,0,0,0-.978.978v3.849h3.914Zm0,0" transform="translate(-33.652 -99.086)" fill="#610000"/>
  <path id="Path_123" data-name="Path 123" d="M142.96,6.914V.978A.978.978,0,0,0,141.981,0h-15A.978.978,0,0,0,126,.978V11.741h16.96Zm-4.892,2.87h-7.175a.978.978,0,0,1,0-1.957h7.175a.978.978,0,1,1,0,1.957Zm0-3.914h-7.175a.978.978,0,0,1,0-1.957h7.175a.978.978,0,1,1,0,1.957Zm0,0" transform="translate(-117.781)" fill="#610000"/>
  <path id="Path_124" data-name="Path 124" d="M142.96,330H126v10.893a.978.978,0,0,0,.978.978h15a.978.978,0,0,0,.978-.978v-.388h0Zm0,0" transform="translate(-117.781 -308.474)" fill="#610000"/>
  <path id="Path_125" data-name="Path 125" d="M32.419,210H.978a.978.978,0,0,0-.978.978v15.46a.979.979,0,0,0,.978.978H6.262V216.849a.978.978,0,0,1,.978-.978H26.157a.979.979,0,0,1,.978.978v10.567h5.284a.979.979,0,0,0,.978-.978v-15.46A.978.978,0,0,0,32.419,210ZM5.936,213.914H4.892a.978.978,0,1,1,0-1.957H5.936a.978.978,0,1,1,0,1.957Zm4.175,0H9.067a.978.978,0,1,1,0-1.957h1.044a.978.978,0,1,1,0,1.957Zm0,0" transform="translate(0 -196.302)" fill="#610000"/>
</svg>
