<svg xmlns="http://www.w3.org/2000/svg" width="34.76" height="39.346" viewBox="0 0 34.76 39.346">
  <g id="tire" transform="translate(-1.515)">
    <g id="Group_115" data-name="Group 115" transform="translate(1.515)">
      <path id="Path_113" data-name="Path 113" d="M17.246,37.274a4.867,4.867,0,0,1-1.4-.02c-.109-.051.126-.3.418-.537.339-.28.03-.566-.133-.711a17.293,17.293,0,0,1-1.559-1.581,1.17,1.17,0,0,0-.949-.413A16.128,16.128,0,0,1,11.536,34c-.1-.047.475-.527,1.037-.978a.817.817,0,0,0,.15-1.127A20.788,20.788,0,0,1,11.5,29.552a.878.878,0,0,0-.828-.5c-.819-.012-1.749.044-1.876-.015-.1-.048.622-.729,1.35-1.333a1.021,1.021,0,0,0,.274-1.12c-.229-.946-.483-1.9-.639-2.893a.8.8,0,0,0-.785-.716,9.393,9.393,0,0,1-1.607-.021c-.1-.047.645-.713,1.462-1.321A1.183,1.183,0,0,0,9.482,20.5c.018-.241-.015-.483-.015-.726a20.545,20.545,0,0,1,.123-2.417c.088-.734-.354-.882-.6-.87a9.762,9.762,0,0,1-1.619.023,8.794,8.794,0,0,1,2.019-1.474A1.65,1.65,0,0,0,10.159,14c.272-.916.5-1.831.844-2.7.307-.781-.321-.911-.639-.9a10.16,10.16,0,0,1-1.592,0,9.514,9.514,0,0,1,2.551-1.391,2.733,2.733,0,0,0,1.359-1.188c.387-.617.814-1.2,1.215-1.789s-.041-.655-.3-.655a17.108,17.108,0,0,1-2.007,0,15.646,15.646,0,0,1,3.376-1.242,2.8,2.8,0,0,0,1.217-.613c.449-.371.875-.769,1.345-1.1.418-.294.079-.354-.112-.357-1.1-.015-2.093.08-2.256,0a23.078,23.078,0,0,1,3.96-.689A20.606,20.606,0,0,1,23.01,0c-.292,0-.539,0-.634.009H15.817c-.369.047-1.948-.021-2.234,0a6.581,6.581,0,0,0-1.969.442c-.469.189-.622.793-.3.922.354.142,1.7.61,1.538.693a24.092,24.092,0,0,1-3.037-.077,2.509,2.509,0,0,0-1.323.118,5.373,5.373,0,0,0-1.074,1c-.245.247-.307.779.047.946S9.454,5.312,9.233,5.422a17.948,17.948,0,0,1-3.054.2c-.557-.051-.85-.02-1.068.291A11.184,11.184,0,0,0,4.066,7.863c-.177.357-.162,1,.107,1.136a13.2,13.2,0,0,1,2.315,1.388,24.265,24.265,0,0,0-2.945.285c-.378,0-.679.02-.813.419a16.315,16.315,0,0,0-.62,2.468.978.978,0,0,0,.4,1.052A18.453,18.453,0,0,1,5.1,16.486c-.425-.024-2.621.5-2.952.5s-.548.265-.584.7a13.262,13.262,0,0,0-.036,1.65c0,.3.006.6.015.894A1.413,1.413,0,0,0,2.3,21.312c.5.236,3.043,1.488,2.816,1.6a27.44,27.44,0,0,1-2.727.386c-.536.017-.6.552-.539.99a14.277,14.277,0,0,0,.454,2.35,1.064,1.064,0,0,0,.645.695c.285.1,3.885,1.565,3.656,1.68a23.213,23.213,0,0,1-2.688.522c-.452.024-.406.667-.2,1.135a7.58,7.58,0,0,0,.722,1.492,1.738,1.738,0,0,0,.71.487,30.9,30.9,0,0,1,4.151,1.327c-.189.1-2.377.2-2.783.224s-.353.63-.121.906a6.058,6.058,0,0,0,1.087,1.136c.362.315,1.2.289,1.261.331a37.452,37.452,0,0,1,4.174.713,24.645,24.645,0,0,1-2.744.387c-.395-.018-.077.531.206.67a9.46,9.46,0,0,0,2.172.787.383.383,0,0,0,.08.009c.263,0,1.913.157,2.2.157.374,0,5.436.027,7.913.039a20.647,20.647,0,0,1-4.7-1.875A1.325,1.325,0,0,0,17.246,37.274Z" transform="translate(-1.515)" fill="#9daca2"/>
    </g>
    <path id="Path_114" data-name="Path 114" d="M32.939,17.854c-.027-.446-.257-.766-.583-.737-.008,0-.015.018-.024.02-.047-.545-.1-1.085-.186-1.616a.079.079,0,0,0,.021,0,.915.915,0,0,0,.378-1,27.014,27.014,0,0,0-.769-3.176c-.121-.41-.769-.58-.769-.58s-.306-.751-.5-1.211c.006-.008.015,0,.021-.011a1.1,1.1,0,0,0,.135-1.129,20.24,20.24,0,0,0-1.429-2.6c-.207-.318-.988-.285-.994-.272a9.4,9.4,0,0,0-.6-.772c.008-.014.017-.006.023-.02a1.1,1.1,0,0,0-.123-1.133A13.416,13.416,0,0,0,25.616,1.9c-.269-.192-1.438-.021-1.438-.021l-.3-.151c0-.012.012-.015.014-.024a.923.923,0,0,0-.368-1,9.147,9.147,0,0,0-2.2-.631A14.75,14.75,0,0,0,19.752,0a14.92,14.92,0,0,0-3.284,1.612c1,.12-1.267,1.718-1.093.781A16.514,16.514,0,0,0,13.5,4.1c.962.092-.828,2.362-1.121,1.311a19.732,19.732,0,0,0-2.022,3.234c.875-.262-.18,2.617-.8,1.805a23.314,23.314,0,0,0-1.156,4.021c.814-.3.43,2.323-.3,1.946a28.586,28.586,0,0,0-.194,3.352q0,.361.009.717c.791-.333,1.176,2.066.123,2.087a25.553,25.553,0,0,0,.731,4.1c.481-.474,1.73,1.607.61,1.937a20.474,20.474,0,0,0,1.492,3.21c.3-.567,1.8,1.288.943,1.474a17.71,17.71,0,0,0,2.2,2.561c.132-.54,1.7.643,1.085.958a16,16,0,0,0,4.4,2.529l1.315.006a5.691,5.691,0,0,0,1.515-.213c.291-.085.869-.985.869-.985s1.047-.05,1.264-.05a.388.388,0,0,0,.194-.054,12.142,12.142,0,0,0,2.005-1.483,1.069,1.069,0,0,0,.183-1.112c0-.009-.012-.009-.014-.018a8.747,8.747,0,0,0,.649-.714,5.856,5.856,0,0,0,.642.061.442.442,0,0,0,.348-.2,18.093,18.093,0,0,0,1.563-2.42,1.121,1.121,0,0,0-.073-1.141c-.009-.011-.02,0-.027-.014.216-.439.374-.732.569-1.2.006.008.241-.021.331-.021.186,0,.363-.148.465-.41a25.348,25.348,0,0,0,.934-3.072.971.971,0,0,0-.325-1.04s-.009,0-.014,0c.107-.521.194-1.052.271-1.589.008,0,.009.014.015.015a.4.4,0,0,0,.092.011c.259,0,.484-.28.53-.673a30.016,30.016,0,0,0,.191-3.373C32.992,19.046,32.974,18.446,32.939,17.854ZM20.89,32.177c-4.124,0-7.467-5.6-7.467-12.5s3.343-12.5,7.467-12.5,7.465,5.6,7.465,12.5S25.015,32.177,20.89,32.177Z" transform="translate(3.282)" fill="#9daca2"/>
  </g>
</svg>
