<svg id="wire" xmlns="http://www.w3.org/2000/svg" width="29.398" height="29.398" viewBox="0 0 29.398 29.398">
  <g id="Group_128" data-name="Group 128">
    <path id="Path_120" data-name="Path 120" d="M22.717,13.363H6.681a4.009,4.009,0,1,1,0-8.018h6.681V6.681A1.336,1.336,0,0,0,14.7,8.018h8.018a1.336,1.336,0,0,0,1.336-1.336V5.345h4.009a1.336,1.336,0,1,0,0-2.673H24.053V1.336A1.336,1.336,0,0,0,22.717,0H14.7a1.336,1.336,0,0,0-1.336,1.336V2.673H6.681a6.681,6.681,0,1,0,0,13.363H22.717a4.009,4.009,0,1,1,0,8.018H16.035V22.717A1.336,1.336,0,0,0,14.7,21.381H6.681a1.336,1.336,0,0,0-1.336,1.336v1.336H1.336a1.336,1.336,0,0,0,0,2.673H5.345v1.336A1.336,1.336,0,0,0,6.681,29.4H14.7a1.336,1.336,0,0,0,1.336-1.336V26.726h6.681a6.681,6.681,0,1,0,0-13.363Z" fill="#5f1688"/>
  </g>
</svg>
